# xmcd
#
# Track frame offsets:
#        150
#        13215
#        25440
#        40977
#        55485
#        68632
#
# Disc length: 1174 seconds
#
# Revision: 0
# Processed by: cddbd v1.5.1PL0 Copyright (c) Steve Scherf et al.
# Submitted via: ExactAudioCopy v0.95a5
#
DISCID=50049406
DTITLE=SCAPEGRACE - HOMEMADE
DYEAR=2005
DGENRE=
TTITLE0=Catch Your Heart
TTITLE1=Meet Me Again
TTITLE2=My Everything
TTITLE3=Pleasure Song
TTITLE4=Tripod
TTITLE5=Glorious Days
EXTD=
EXTT0=
EXTT1=
EXTT2=
EXTT3=
EXTT4=
EXTT5=
PLAYORDER=
